<svg width="224" height="46" viewBox="0 0 224 46" fill="none" xmlns="http://www.w3.org/2000/svg">
<path d="M11.3736 32.3504C12.2584 32.3504 13.0816 32.2048 13.8432 31.9136C14.616 31.6224 15.3272 31.2528 15.9768 30.8048L17.3544 32.6528C16.5816 33.3136 15.652 33.8344 14.5656 34.2152C13.4792 34.596 12.4152 34.7864 11.3736 34.7864C9.6152 34.7864 8.1144 34.4112 6.8712 33.6608C5.6392 32.8992 4.6984 31.8352 4.0488 30.4688C3.3992 29.0912 3.0744 27.4784 3.0744 25.6304C3.0744 23.8608 3.3992 22.276 4.0488 20.876C4.7096 19.4648 5.656 18.356 6.888 17.5496C8.1312 16.7432 9.6376 16.34 11.4072 16.34C12.5384 16.34 13.5968 16.5136 14.5824 16.8608C15.5792 17.1968 16.492 17.7064 17.3208 18.3896L15.9432 20.2712C15.1928 19.7448 14.4368 19.3528 13.6752 19.0952C12.9248 18.8264 12.1576 18.692 11.3736 18.692C9.8504 18.692 8.596 19.2632 7.6104 20.4056C6.6248 21.548 6.132 23.2896 6.132 25.6304C6.132 27.1984 6.356 28.4808 6.804 29.4776C7.2632 30.4632 7.8848 31.1912 8.6688 31.6616C9.464 32.1208 10.3656 32.3504 11.3736 32.3504ZM30.2605 16.34C31.9293 16.34 33.3237 16.7208 34.4437 17.4824C35.5749 18.2328 36.4205 19.2968 36.9805 20.6744C37.5517 22.052 37.8373 23.676 37.8373 25.5464C37.8373 27.3496 37.5461 28.9456 36.9637 30.3344C36.3813 31.7232 35.5245 32.8152 34.3933 33.6104C33.2733 34.3944 31.8845 34.7864 30.2269 34.7864C28.5693 34.7864 27.1749 34.4056 26.0437 33.644C24.9125 32.8824 24.0557 31.8128 23.4733 30.4352C22.9021 29.0464 22.6165 27.428 22.6165 25.58C22.6165 23.7544 22.9077 22.1472 23.4901 20.7584C24.0725 19.3696 24.9293 18.2888 26.0605 17.516C27.2029 16.732 28.6029 16.34 30.2605 16.34ZM30.2605 18.6416C28.7373 18.6416 27.5837 19.2072 26.7997 20.3384C26.0269 21.4584 25.6405 23.2056 25.6405 25.58C25.6405 27.9096 26.0213 29.64 26.7829 30.7712C27.5557 31.9024 28.7037 32.468 30.2269 32.468C31.7501 32.468 32.8925 31.9024 33.6541 30.7712C34.4269 29.64 34.8133 27.8984 34.8133 25.5464C34.8133 23.1944 34.4325 21.4584 33.6709 20.3384C32.9093 19.2072 31.7725 18.6416 30.2605 18.6416ZM54.2545 9.23363L57.0769 9.58642V34.4H54.6073L54.3385 32.0648C53.6777 33.0056 52.9161 33.6944 52.0537 34.1312C51.2025 34.568 50.2897 34.7864 49.3153 34.7864C47.7809 34.7864 46.5153 34.4 45.5185 33.6272C44.5217 32.8544 43.7825 31.7792 43.3009 30.4016C42.8193 29.0128 42.5785 27.4056 42.5785 25.58C42.5785 23.8104 42.8529 22.2312 43.4017 20.8424C43.9505 19.4424 44.7401 18.3448 45.7705 17.5496C46.8121 16.7432 48.0609 16.34 49.5169 16.34C50.5361 16.34 51.4321 16.5192 52.2049 16.8776C52.9777 17.2248 53.6609 17.74 54.2545 18.4232V9.23363ZM50.2561 18.608C48.7777 18.608 47.6409 19.1848 46.8457 20.3384C46.0505 21.492 45.6529 23.2392 45.6529 25.58C45.6529 27.1032 45.8153 28.38 46.1401 29.4104C46.4649 30.4408 46.9409 31.2136 47.5681 31.7288C48.2065 32.244 48.9849 32.5016 49.9033 32.5016C50.9113 32.5016 51.7681 32.216 52.4737 31.6448C53.1905 31.0736 53.7841 30.4296 54.2545 29.7128V20.876C53.7729 20.1592 53.1905 19.6048 52.5073 19.2128C51.8241 18.8096 51.0737 18.608 50.2561 18.608ZM66.035 26.5544C66.091 27.9208 66.3542 29.0408 66.8246 29.9144C67.295 30.7768 67.9166 31.4152 68.6894 31.8296C69.4622 32.2328 70.3022 32.4344 71.2094 32.4344C72.1166 32.4344 72.9342 32.3 73.6622 32.0312C74.4014 31.7624 75.1574 31.3648 75.9302 30.8384L77.2574 32.7032C76.4286 33.3528 75.4822 33.8624 74.4182 34.232C73.3654 34.6016 72.2846 34.7864 71.1758 34.7864C69.4622 34.7864 68.0006 34.4 66.791 33.6272C65.5814 32.8544 64.6574 31.7792 64.019 30.4016C63.3918 29.0128 63.0782 27.4056 63.0782 25.58C63.0782 23.788 63.3974 22.1976 64.0358 20.8088C64.6742 19.42 65.5702 18.328 66.7238 17.5328C67.8774 16.7376 69.2382 16.34 70.8062 16.34C72.2958 16.34 73.5782 16.6928 74.6534 17.3984C75.7286 18.0928 76.5518 19.0896 77.123 20.3888C77.7054 21.6768 77.9966 23.2168 77.9966 25.0088C77.9966 25.3112 77.991 25.5968 77.9798 25.8656C77.9686 26.1232 77.9518 26.3528 77.9294 26.5544H66.035ZM70.8398 18.6584C69.5294 18.6584 68.4318 19.1232 67.547 20.0528C66.6734 20.9824 66.175 22.4216 66.0518 24.3704H75.275C75.2414 22.4776 74.827 21.0552 74.0318 20.1032C73.2366 19.14 72.1726 18.6584 70.8398 18.6584ZM88.3323 10.3424C88.3323 9.65922 88.5899 9.08242 89.1051 8.61202C89.6203 8.13042 90.2139 7.88962 90.8859 7.88962C91.5915 7.88962 92.1907 8.13042 92.6835 8.61202C93.1875 9.08242 93.4395 9.65922 93.4395 10.3424C93.4395 10.6672 93.4003 10.9808 93.3219 11.2832C93.2435 11.5856 93.0755 12.0112 92.8179 12.56L90.0459 18.356H87.8619L89.2395 12.1904C88.9595 12 88.7355 11.7424 88.5675 11.4176C88.4107 11.0816 88.3323 10.7232 88.3323 10.3424ZM104.111 34.4V16.7096H106.514L106.732 19.1624C107.449 18.2552 108.345 17.5608 109.42 17.0792C110.506 16.5864 111.559 16.34 112.578 16.34C114.314 16.34 115.574 16.7992 116.358 17.7176C117.154 18.636 117.551 19.9128 117.551 21.548V34.4H114.729V23.6312C114.729 22.4216 114.662 21.4472 114.527 20.708C114.393 19.9576 114.113 19.4144 113.687 19.0784C113.262 18.7312 112.601 18.5576 111.705 18.5576C111.01 18.5576 110.355 18.7088 109.739 19.0112C109.134 19.3136 108.591 19.6944 108.11 20.1536C107.639 20.6016 107.247 21.0552 106.934 21.5144V34.4H104.111ZM128.626 10.3424C128.626 9.65922 128.884 9.08242 129.399 8.61202C129.914 8.13042 130.508 7.88962 131.18 7.88962C131.885 7.88962 132.484 8.13042 132.977 8.61202C133.481 9.08242 133.733 9.65922 133.733 10.3424C133.733 10.6672 133.694 10.9808 133.616 11.2832C133.537 11.5856 133.369 12.0112 133.112 12.56L130.34 18.356H128.156L129.533 12.1904C129.253 12 129.029 11.7424 128.861 11.4176C128.704 11.0816 128.626 10.7232 128.626 10.3424ZM156.064 16.34C156.635 16.34 157.179 16.4632 157.694 16.7096C158.22 16.956 158.651 17.432 158.987 18.1376C159.323 18.8432 159.491 19.8736 159.491 21.2288V34.4H156.871V21.6824C156.871 20.5736 156.803 19.7728 156.669 19.28C156.535 18.7872 156.148 18.5408 155.51 18.5408C154.983 18.5408 154.457 18.7088 153.931 19.0448C153.415 19.3696 152.911 19.9072 152.419 20.6576V34.4H149.781V21.6824C149.781 20.5736 149.714 19.7728 149.579 19.28C149.445 18.7872 149.059 18.5408 148.42 18.5408C147.871 18.5408 147.339 18.7088 146.824 19.0448C146.32 19.3696 145.822 19.9072 145.329 20.6576V34.4H142.725V16.7096H144.943L145.111 18.7592C145.592 18.076 146.13 17.5048 146.723 17.0456C147.328 16.5752 148.073 16.34 148.958 16.34C149.63 16.34 150.263 16.5024 150.856 16.8272C151.45 17.1408 151.887 17.7568 152.167 18.6752C152.648 17.9808 153.191 17.4208 153.796 16.9952C154.401 16.5584 155.157 16.34 156.064 16.34ZM166.769 26.5544C166.825 27.9208 167.089 29.0408 167.559 29.9144C168.029 30.7768 168.651 31.4152 169.424 31.8296C170.197 32.2328 171.037 32.4344 171.944 32.4344C172.851 32.4344 173.669 32.3 174.397 32.0312C175.136 31.7624 175.892 31.3648 176.665 30.8384L177.992 32.7032C177.163 33.3528 176.217 33.8624 175.153 34.232C174.1 34.6016 173.019 34.7864 171.91 34.7864C170.197 34.7864 168.735 34.4 167.525 33.6272C166.316 32.8544 165.392 31.7792 164.753 30.4016C164.126 29.0128 163.813 27.4056 163.813 25.58C163.813 23.788 164.132 22.1976 164.77 20.8088C165.409 19.42 166.305 18.328 167.458 17.5328C168.612 16.7376 169.973 16.34 171.541 16.34C173.03 16.34 174.313 16.6928 175.388 17.3984C176.463 18.0928 177.286 19.0896 177.857 20.3888C178.44 21.6768 178.731 23.2168 178.731 25.0088C178.731 25.3112 178.725 25.5968 178.714 25.8656C178.703 26.1232 178.686 26.3528 178.664 26.5544H166.769ZM171.574 18.6584C170.264 18.6584 169.166 19.1232 168.281 20.0528C167.408 20.9824 166.909 22.4216 166.786 24.3704H176.009C175.976 22.4776 175.561 21.0552 174.766 20.1032C173.971 19.14 172.907 18.6584 171.574 18.6584ZM186.916 26.5544C186.972 27.9208 187.235 29.0408 187.706 29.9144C188.176 30.7768 188.798 31.4152 189.571 31.8296C190.343 32.2328 191.183 32.4344 192.091 32.4344C192.998 32.4344 193.815 32.3 194.543 32.0312C195.283 31.7624 196.039 31.3648 196.811 30.8384L198.139 32.7032C197.31 33.3528 196.363 33.8624 195.299 34.232C194.247 34.6016 193.166 34.7864 192.057 34.7864C190.343 34.7864 188.882 34.4 187.672 33.6272C186.463 32.8544 185.539 31.7792 184.9 30.4016C184.273 29.0128 183.959 27.4056 183.959 25.58C183.959 23.788 184.279 22.1976 184.917 20.8088C185.555 19.42 186.451 18.328 187.605 17.5328C188.759 16.7376 190.119 16.34 191.687 16.34C193.177 16.34 194.459 16.6928 195.535 17.3984C196.61 18.0928 197.433 19.0896 198.004 20.3888C198.587 21.6768 198.878 23.2168 198.878 25.0088C198.878 25.3112 198.872 25.5968 198.861 25.8656C198.85 26.1232 198.833 26.3528 198.811 26.5544H186.916ZM191.721 18.6584C190.411 18.6584 189.313 19.1232 188.428 20.0528C187.555 20.9824 187.056 22.4216 186.933 24.3704H196.156C196.123 22.4776 195.708 21.0552 194.913 20.1032C194.118 19.14 193.054 18.6584 191.721 18.6584ZM218.89 33.5096C218.286 33.9128 217.552 34.2264 216.69 34.4504C215.827 34.6744 214.982 34.7864 214.153 34.7864C212.249 34.7864 210.782 34.288 209.751 33.2912C208.721 32.2944 208.206 31.012 208.206 29.444V18.8936H204.14V16.7096H208.206V12.6944L211.028 12.3584V16.7096H217.143L216.807 18.8936H211.028V29.4104C211.028 30.396 211.286 31.1464 211.801 31.6616C212.327 32.1768 213.195 32.4344 214.405 32.4344C215.066 32.4344 215.676 32.356 216.236 32.1992C216.796 32.0424 217.317 31.8408 217.798 31.5944L218.89 33.5096Z" fill="#A3A3A3"/>
<path d="M12.7736 30.9504C13.6584 30.9504 14.4816 30.8048 15.2432 30.5136C16.016 30.2224 16.7272 29.8528 17.3768 29.4048L18.7544 31.2528C17.9816 31.9136 17.052 32.4344 15.9656 32.8152C14.8792 33.196 13.8152 33.3864 12.7736 33.3864C11.0152 33.3864 9.51442 33.0112 8.27122 32.2608C7.03922 31.4992 6.09842 30.4352 5.44882 29.0688C4.79922 27.6912 4.47442 26.0784 4.47442 24.2304C4.47442 22.4608 4.79922 20.876 5.44882 19.476C6.10962 18.0648 7.05602 16.956 8.28802 16.1496C9.53122 15.3432 11.0376 14.94 12.8072 14.94C13.9384 14.94 14.9968 15.1136 15.9824 15.4608C16.9792 15.7968 17.892 16.3064 18.7208 16.9896L17.3432 18.8712C16.5928 18.3448 15.8368 17.9528 15.0752 17.6952C14.3248 17.4264 13.5576 17.292 12.7736 17.292C11.2504 17.292 9.99602 17.8632 9.01042 19.0056C8.02482 20.148 7.53202 21.8896 7.53202 24.2304C7.53202 25.7984 7.75602 27.0808 8.20402 28.0776C8.66322 29.0632 9.28482 29.7912 10.0688 30.2616C10.864 30.7208 11.7656 30.9504 12.7736 30.9504ZM31.6605 14.94C33.3293 14.94 34.7237 15.3208 35.8437 16.0824C36.9749 16.8328 37.8205 17.8968 38.3805 19.2744C38.9517 20.652 39.2373 22.276 39.2373 24.1464C39.2373 25.9496 38.9461 27.5456 38.3637 28.9344C37.7813 30.3232 36.9245 31.4152 35.7933 32.2104C34.6733 32.9944 33.2845 33.3864 31.6269 33.3864C29.9693 33.3864 28.5749 33.0056 27.4437 32.244C26.3125 31.4824 25.4557 30.4128 24.8733 29.0352C24.3021 27.6464 24.0165 26.028 24.0165 24.18C24.0165 22.3544 24.3077 20.7472 24.8901 19.3584C25.4725 17.9696 26.3293 16.8888 27.4605 16.116C28.6029 15.332 30.0029 14.94 31.6605 14.94ZM31.6605 17.2416C30.1373 17.2416 28.9837 17.8072 28.1997 18.9384C27.4269 20.0584 27.0405 21.8056 27.0405 24.18C27.0405 26.5096 27.4213 28.24 28.1829 29.3712C28.9557 30.5024 30.1037 31.068 31.6269 31.068C33.1501 31.068 34.2925 30.5024 35.0541 29.3712C35.8269 28.24 36.2133 26.4984 36.2133 24.1464C36.2133 21.7944 35.8325 20.0584 35.0709 18.9384C34.3093 17.8072 33.1725 17.2416 31.6605 17.2416ZM55.6546 7.8336L58.477 8.1864V33H56.0074L55.7386 30.6648C55.0778 31.6056 54.3162 32.2944 53.4538 32.7312C52.6026 33.168 51.6898 33.3864 50.7154 33.3864C49.181 33.3864 47.9154 33 46.9186 32.2272C45.9218 31.4544 45.1826 30.3792 44.701 29.0016C44.2194 27.6128 43.9786 26.0056 43.9786 24.18C43.9786 22.4104 44.253 20.8312 44.8018 19.4424C45.3506 18.0424 46.1402 16.9448 47.1706 16.1496C48.2122 15.3432 49.461 14.94 50.917 14.94C51.9362 14.94 52.8322 15.1192 53.605 15.4776C54.3778 15.8248 55.061 16.34 55.6546 17.0232V7.8336ZM51.6562 17.208C50.1778 17.208 49.041 17.7848 48.2458 18.9384C47.4506 20.092 47.053 21.8392 47.053 24.18C47.053 25.7032 47.2154 26.98 47.5402 28.0104C47.865 29.0408 48.341 29.8136 48.9682 30.3288C49.6066 30.844 50.385 31.1016 51.3034 31.1016C52.3114 31.1016 53.1682 30.816 53.8738 30.2448C54.5906 29.6736 55.1842 29.0296 55.6546 28.3128V19.476C55.173 18.7592 54.5906 18.2048 53.9074 17.8128C53.2242 17.4096 52.4738 17.208 51.6562 17.208ZM67.435 25.1544C67.491 26.5208 67.7542 27.6408 68.2246 28.5144C68.695 29.3768 69.3166 30.0152 70.0894 30.4296C70.8622 30.8328 71.7022 31.0344 72.6094 31.0344C73.5166 31.0344 74.3342 30.9 75.0622 30.6312C75.8014 30.3624 76.5574 29.9648 77.3302 29.4384L78.6574 31.3032C77.8286 31.9528 76.8822 32.4624 75.8182 32.832C74.7654 33.2016 73.6846 33.3864 72.5758 33.3864C70.8622 33.3864 69.4006 33 68.191 32.2272C66.9814 31.4544 66.0574 30.3792 65.419 29.0016C64.7918 27.6128 64.4782 26.0056 64.4782 24.18C64.4782 22.388 64.7974 20.7976 65.4358 19.4088C66.0742 18.02 66.9702 16.928 68.1238 16.1328C69.2774 15.3376 70.6382 14.94 72.2062 14.94C73.6958 14.94 74.9782 15.2928 76.0534 15.9984C77.1286 16.6928 77.9518 17.6896 78.523 18.9888C79.1054 20.2768 79.3966 21.8168 79.3966 23.6088C79.3966 23.9112 79.391 24.1968 79.3798 24.4656C79.3686 24.7232 79.3518 24.9528 79.3294 25.1544H67.435ZM72.2398 17.2584C70.9294 17.2584 69.8318 17.7232 68.947 18.6528C68.0734 19.5824 67.575 21.0216 67.4518 22.9704H76.675C76.6414 21.0776 76.227 19.6552 75.4318 18.7032C74.6366 17.74 73.5726 17.2584 72.2398 17.2584ZM89.7323 8.9424C89.7323 8.2592 89.9899 7.6824 90.5051 7.212C91.0203 6.7304 91.6139 6.4896 92.2859 6.4896C92.9915 6.4896 93.5907 6.7304 94.0835 7.212C94.5875 7.6824 94.8395 8.2592 94.8395 8.9424C94.8395 9.2672 94.8003 9.5808 94.7219 9.8832C94.6435 10.1856 94.4755 10.6112 94.2179 11.16L91.4459 16.956H89.2619L90.6395 10.7904C90.3595 10.6 90.1355 10.3424 89.9675 10.0176C89.8107 9.6816 89.7323 9.3232 89.7323 8.9424ZM105.511 33V15.3096H107.914L108.132 17.7624C108.849 16.8552 109.745 16.1608 110.82 15.6792C111.906 15.1864 112.959 14.94 113.978 14.94C115.714 14.94 116.974 15.3992 117.758 16.3176C118.554 17.236 118.951 18.5128 118.951 20.148V33H116.129V22.2312C116.129 21.0216 116.062 20.0472 115.927 19.308C115.793 18.5576 115.513 18.0144 115.087 17.6784C114.662 17.3312 114.001 17.1576 113.105 17.1576C112.41 17.1576 111.755 17.3088 111.139 17.6112C110.534 17.9136 109.991 18.2944 109.51 18.7536C109.039 19.2016 108.647 19.6552 108.334 20.1144V33H105.511ZM130.026 8.9424C130.026 8.2592 130.284 7.6824 130.799 7.212C131.314 6.7304 131.908 6.4896 132.58 6.4896C133.285 6.4896 133.884 6.7304 134.377 7.212C134.881 7.6824 135.133 8.2592 135.133 8.9424C135.133 9.2672 135.094 9.5808 135.016 9.8832C134.937 10.1856 134.769 10.6112 134.512 11.16L131.74 16.956H129.556L130.933 10.7904C130.653 10.6 130.429 10.3424 130.261 10.0176C130.104 9.6816 130.026 9.3232 130.026 8.9424ZM157.464 14.94C158.035 14.94 158.579 15.0632 159.094 15.3096C159.62 15.556 160.051 16.032 160.387 16.7376C160.723 17.4432 160.891 18.4736 160.891 19.8288V33H158.271V20.2824C158.271 19.1736 158.203 18.3728 158.069 17.88C157.935 17.3872 157.548 17.1408 156.91 17.1408C156.383 17.1408 155.857 17.3088 155.331 17.6448C154.815 17.9696 154.311 18.5072 153.819 19.2576V33H151.181V20.2824C151.181 19.1736 151.114 18.3728 150.979 17.88C150.845 17.3872 150.459 17.1408 149.82 17.1408C149.271 17.1408 148.739 17.3088 148.224 17.6448C147.72 17.9696 147.222 18.5072 146.729 19.2576V33H144.125V15.3096H146.343L146.511 17.3592C146.992 16.676 147.53 16.1048 148.123 15.6456C148.728 15.1752 149.473 14.94 150.358 14.94C151.03 14.94 151.663 15.1024 152.256 15.4272C152.85 15.7408 153.287 16.3568 153.567 17.2752C154.048 16.5808 154.591 16.0208 155.196 15.5952C155.801 15.1584 156.557 14.94 157.464 14.94ZM168.169 25.1544C168.225 26.5208 168.489 27.6408 168.959 28.5144C169.429 29.3768 170.051 30.0152 170.824 30.4296C171.597 30.8328 172.437 31.0344 173.344 31.0344C174.251 31.0344 175.069 30.9 175.797 30.6312C176.536 30.3624 177.292 29.9648 178.065 29.4384L179.392 31.3032C178.563 31.9528 177.617 32.4624 176.553 32.832C175.5 33.2016 174.419 33.3864 173.31 33.3864C171.597 33.3864 170.135 33 168.925 32.2272C167.716 31.4544 166.792 30.3792 166.153 29.0016C165.526 27.6128 165.213 26.0056 165.213 24.18C165.213 22.388 165.532 20.7976 166.17 19.4088C166.809 18.02 167.705 16.928 168.858 16.1328C170.012 15.3376 171.373 14.94 172.941 14.94C174.43 14.94 175.713 15.2928 176.788 15.9984C177.863 16.6928 178.686 17.6896 179.257 18.9888C179.84 20.2768 180.131 21.8168 180.131 23.6088C180.131 23.9112 180.125 24.1968 180.114 24.4656C180.103 24.7232 180.086 24.9528 180.064 25.1544H168.169ZM172.974 17.2584C171.664 17.2584 170.566 17.7232 169.681 18.6528C168.808 19.5824 168.309 21.0216 168.186 22.9704H177.409C177.376 21.0776 176.961 19.6552 176.166 18.7032C175.371 17.74 174.307 17.2584 172.974 17.2584ZM188.316 25.1544C188.372 26.5208 188.635 27.6408 189.106 28.5144C189.576 29.3768 190.198 30.0152 190.971 30.4296C191.743 30.8328 192.583 31.0344 193.491 31.0344C194.398 31.0344 195.215 30.9 195.943 30.6312C196.683 30.3624 197.439 29.9648 198.211 29.4384L199.539 31.3032C198.71 31.9528 197.763 32.4624 196.699 32.832C195.647 33.2016 194.566 33.3864 193.457 33.3864C191.743 33.3864 190.282 33 189.072 32.2272C187.863 31.4544 186.939 30.3792 186.3 29.0016C185.673 27.6128 185.359 26.0056 185.359 24.18C185.359 22.388 185.679 20.7976 186.317 19.4088C186.955 18.02 187.851 16.928 189.005 16.1328C190.159 15.3376 191.519 14.94 193.087 14.94C194.577 14.94 195.859 15.2928 196.935 15.9984C198.01 16.6928 198.833 17.6896 199.404 18.9888C199.987 20.2768 200.278 21.8168 200.278 23.6088C200.278 23.9112 200.272 24.1968 200.261 24.4656C200.25 24.7232 200.233 24.9528 200.211 25.1544H188.316ZM193.121 17.2584C191.811 17.2584 190.713 17.7232 189.828 18.6528C188.955 19.5824 188.456 21.0216 188.333 22.9704H197.556C197.523 21.0776 197.108 19.6552 196.313 18.7032C195.518 17.74 194.454 17.2584 193.121 17.2584ZM220.29 32.1096C219.686 32.5128 218.952 32.8264 218.09 33.0504C217.227 33.2744 216.382 33.3864 215.553 33.3864C213.649 33.3864 212.182 32.888 211.151 31.8912C210.121 30.8944 209.606 29.612 209.606 28.044V17.4936H205.54V15.3096H209.606V11.2944L212.428 10.9584V15.3096H218.543L218.207 17.4936H212.428V28.0104C212.428 28.996 212.686 29.7464 213.201 30.2616C213.727 30.7768 214.595 31.0344 215.805 31.0344C216.466 31.0344 217.076 30.956 217.636 30.7992C218.196 30.6424 218.717 30.4408 219.198 30.1944L220.29 32.1096Z" fill="white"/>
</svg>
